<?xml version="1.0" encoding="UTF-8" standalone="no"?>
<svg width="128px" height="128px" viewBox="0 0 128 128" version="1.1" xmlns="http://www.w3.org/2000/svg" xmlns:xlink="http://www.w3.org/1999/xlink">
    <!-- Generator: Sketch 3.8.3 (29802) - http://www.bohemiancoding.com/sketch -->
    <title>dribbble</title>
    <desc>Created with Sketch.</desc>
    <defs></defs>
    <g id="dribbble" stroke="none" stroke-width="1" fill="none" fill-rule="evenodd">
        <g id="dribbble" fill="#EA4C89">
            <path d="M122.779497,51.8619655 C121.937942,48.0210053 120.855942,44.180045 119.293054,40.5791448 C117.850388,36.9782446 115.926834,33.6174044 113.762835,30.3765941 C111.598836,27.255814 109.194393,24.2550638 106.429283,21.4943736 C103.784395,18.7336834 100.778841,16.3330833 97.5328428,14.1725431 C94.2868444,12.012003 90.9206239,10.0915229 87.313959,8.65116279 C83.7072941,7.09077269 79.8601849,5.89047262 76.0130757,5.17029257 C68.0784129,3.60990248 59.7830837,3.60990248 51.9686431,5.17029257 C48.1215338,6.01050263 44.3946468,7.09077269 40.6677597,8.65116279 C37.0610948,10.2115529 33.6948743,12.012003 30.4488759,14.1725431 C27.3230996,16.3330833 24.3175456,18.7336834 21.5524358,21.4943736 C18.9075482,24.2550638 16.3828828,27.255814 14.2188839,30.3765941 C12.0548849,33.6174044 10.2515525,36.9782446 8.68866436,40.5791448 C7.12577624,44.180045 6.04377677,48.0210053 5.20222163,51.8619655 C4.36066649,55.8229557 4,59.903976 4,63.9849962 C4,68.0660165 4.36066649,72.1470368 5.20222163,76.108027 C6.04377677,79.9489872 7.12577624,83.7899475 8.68866436,87.3908477 C10.1313303,90.9917479 12.0548849,94.3525881 14.2188839,97.5933983 C16.3828828,100.714179 18.7873261,103.714929 21.5524358,106.475619 C24.1973234,109.236309 27.2028775,111.636909 30.4488759,113.797449 C33.6948743,115.957989 37.0610948,117.87847 40.6677597,119.31883 C44.2744246,120.87922 48.1215338,122.07952 51.9686431,122.7997 C55.9359744,123.63991 59.9033058,124 63.9908594,124 C68.0784129,124 72.0457443,123.63991 76.0130757,122.7997 C79.8601849,121.95949 83.7072941,120.87922 87.313959,119.31883 C90.8004017,117.75844 94.2868444,115.957989 97.5328428,113.797449 C100.658619,111.636909 103.664173,109.236309 106.429283,106.475619 C109.194393,103.714929 111.598836,100.714179 113.762835,97.5933983 C115.926834,94.3525881 117.730166,90.9917479 119.293054,87.3908477 C120.855942,83.7899475 121.937942,79.9489872 122.779497,76.108027 C123.621052,72.1470368 123.981719,68.0660165 123.981719,63.9849962 C124.101941,59.903976 123.621052,55.8229557 122.779497,51.8619655 L122.779497,51.8619655 Z M54.2528642,15.2528132 C57.4988626,14.5326332 60.8650831,14.2925731 64.2313037,14.2925731 C67.5975242,14.2925731 70.9637448,14.6526632 74.2097432,15.2528132 C77.3355195,15.8529632 80.4612957,16.9332333 83.4668498,18.1335334 C86.3521817,19.3338335 89.2375136,20.8942236 91.8824012,22.6946737 C93.6857336,23.8949737 95.3688439,25.2153038 96.931732,26.6556639 C95.1283996,29.0562641 87.5544033,38.1785446 70.9637448,44.300075 C63.2695264,30.1365341 54.853975,18.6136534 52.5697539,15.6129032 C53.1708647,15.4928732 53.6517533,15.3728432 54.2528642,15.2528132 L54.2528642,15.2528132 Z M18.5468817,44.660165 C19.7491034,41.6594149 21.3119915,38.8987247 23.1153239,36.2580645 C24.9186564,33.6174044 26.9624331,31.0967742 29.1264321,28.9362341 C31.4106532,26.6556639 33.8150964,24.6151538 36.459984,22.8147037 C38.5037608,21.3743436 40.6677597,20.1740435 42.8317587,19.0937734 C44.9957576,22.0945236 53.2910868,33.6174044 61.1055274,47.4208552 C39.7059824,53.0622656 20.8311028,53.5423856 15.781772,53.5423856 C16.503105,50.5416354 17.3446601,47.5408852 18.5468817,44.660165 L18.5468817,44.660165 Z M26.9624331,96.7531883 C25.6399893,95.1927982 24.3175456,93.5123781 23.2355461,91.831958 C21.4322136,89.1912978 19.8693255,86.3105776 18.6671039,83.4298575 C17.3446601,80.4291073 16.3828828,77.3083271 15.781772,74.0675169 C15.060439,70.8267067 14.8199947,67.4658665 14.8199947,63.9849962 L14.8199947,62.3045761 C20.229992,62.3045761 42.4710922,61.9444861 65.4335253,55.1027757 C66.8761913,57.9834959 68.3188572,60.8642161 69.5210789,63.6249062 C68.7997459,63.8649662 68.1986351,63.9849962 67.4773021,64.2250563 C43.3126473,72.1470368 29.7275429,92.192048 26.9624331,96.7531883 L26.9624331,96.7531883 Z M83.4668498,109.836459 C80.4612957,111.156789 77.3355195,112.117029 74.2097432,112.717179 C67.7177464,114.037509 60.744861,114.037509 54.2528642,112.717179 C51.1270879,112.117029 48.0013117,111.036759 44.9957576,109.836459 C42.1104257,108.636159 39.2250938,107.075769 36.5802062,105.275319 C35.4982067,104.555139 34.4162072,103.714929 33.3342078,102.874719 C35.4982067,98.9137284 46.0777571,81.3893473 72.5266329,72.1470368 C72.6468551,72.1470368 72.7670773,72.0270068 72.8872994,72.0270068 C79.7399627,89.7914479 82.7455168,104.675169 83.4668498,109.836459 L83.4668498,109.836459 L83.4668498,109.836459 Z M112.801058,74.0675169 C112.079725,77.1882971 111.117947,80.3090773 109.915726,83.3098275 C108.713504,86.3105776 107.150616,89.0712678 105.347283,91.711928 C103.543951,94.3525881 101.500174,96.8732183 99.3361753,99.0337584 C97.1721764,101.194299 94.7677331,103.234809 92.2430677,104.915229 C91.5217347,100.714179 88.7566249,86.6706677 82.5050725,69.5063766 C97.1721764,67.1057764 110.035948,70.5866467 113.281946,71.4268567 C113.041502,72.5071268 112.92128,73.2273068 112.801058,74.0675169 L112.801058,74.0675169 Z M79.2590741,61.8244561 C78.8984076,60.9842461 78.5377411,60.144036 78.1770746,59.1837959 C77.0950751,56.6631658 76.0130757,54.2625656 74.810854,51.8619655 C92.2430677,44.780195 100.538397,34.9377344 102.461952,32.5371343 C103.423729,33.7374344 104.385506,34.9377344 105.227061,36.2580645 C107.030394,38.8987247 108.593282,41.7794449 109.795503,44.660165 C111.117947,47.6609152 112.079725,50.7816954 112.680835,54.0225056 C113.281946,57.0232558 113.642613,60.264066 113.642613,63.3848462 C110.15617,62.5446362 94.8879553,59.783946 79.2590741,61.8244561 L79.2590741,61.8244561 Z" id="Shape"></path>
        </g>
    </g>
</svg>