<?xml version="1.0" encoding="UTF-8" standalone="no"?>
<svg width="128px" height="128px" viewBox="0 0 128 128" version="1.1" xmlns="http://www.w3.org/2000/svg" xmlns:xlink="http://www.w3.org/1999/xlink">
    <!-- Generator: Sketch 3.8.3 (29802) - http://www.bohemiancoding.com/sketch -->
    <title>google-plus</title>
    <desc>Created with Sketch.</desc>
    <defs></defs>
    <g id="Page-1" stroke="none" stroke-width="1" fill="none" fill-rule="evenodd">
        <g id="google-plus" fill="#DD4B39">
            <path d="M124,59 L113,59 L113,48 L102,48 L102,59 L91,59 L91,70 L102,70 L102,81 L113,81 L113,70 L124,70 L124,59 Z M42,59 L42,72 L64,72 C63,77.5 57.5,88.5 42,88.5 C29,88.5 18.5,77.5 18.5,64.5 C18.5,51.5 29,40.5 42,40.5 C49.5,40.5 54.5,44 57.5,46.5 L68,36.5 C61.5,30 52.5,26 42.5,26 C21,26.5 4,43 4,64.5 C4,86 21,102.5 42,102.5 C64,102.5 78.5,87 78.5,65.5 C78.5,63 78.5,61 78,59 L42,59 L42,59 Z" id="Shape"></path>
        </g>
    </g>
</svg>