<?xml version="1.0" encoding="UTF-8"?>
<svg width="128px" height="128px" viewBox="0 0 128 128" version="1.1" xmlns="http://www.w3.org/2000/svg" xmlns:xlink="http://www.w3.org/1999/xlink">
    <!-- Generator: Sketch 41 (35326) - http://www.bohemiancoding.com/sketch -->
    <title>medium</title>
    <desc>Created with Sketch.</desc>
    <defs></defs>
    <g id="medium" stroke="none" stroke-width="1" transform="translate(0.000000, -1.000000)" fill="#00AB6C" fill-rule="evenodd">
         <g>
            <path d="M85.3333333,91.2 L57.6,45.8666667 L53.3333333,38.9333333 L53.3333333,75.2 L85.3333333,91.2 L85.3333333,91.2 Z M91.7333333,80.5333333 L127.466667,21.3333333 L89.0666667,2.13333333 C86.9333333,1.06666667 84.8,2.13333333 83.2,3.73333333 L63.4666667,35.7333333 L91.7333333,80.5333333 Z M94.9333333,96 L121.066667,108.8 C124.8,110.933333 128,109.333333 128,105.6 L128,41.0666667 L94.9333333,96 Z M42.6666667,21.8666667 C42.6666667,21.8666667 42.6666667,21.3333333 42.6666667,21.8666667 C42.6666667,21.3333333 42.6666667,21.3333333 42.6666667,21.8666667 L17.6,9.06666667 L5.86666667,3.2 L4.8,2.66666667 C2.13333333,1.6 5.92118944e-16,2.66666667 5.92118944e-16,5.33333333 L5.92118944e-16,86.9333333 C5.92118944e-16,89.0666667 1.6,91.7333333 3.73333333,92.8 L36.8,109.333333 C40,110.933333 42.6666667,109.333333 42.6666667,105.6 L42.6666667,21.8666667 Z"></path>
        </g>
    </g>
</svg>