<?xml version="1.0" encoding="UTF-8" standalone="no"?>
<svg width="128px" height="128px" viewBox="0 0 128 128" version="1.1" xmlns="http://www.w3.org/2000/svg" xmlns:xlink="http://www.w3.org/1999/xlink">
    <!-- Generator: Sketch 3.8.3 (29802) - http://www.bohemiancoding.com/sketch -->
    <title>twitter</title>
    <desc>Created with Sketch.</desc>
    <defs></defs>
    <g id="Page-1" stroke="none" stroke-width="1" fill="none" fill-rule="evenodd">
        <g id="twitter" fill="#55ACEE">
            <path d="M124,26.6471675 C119.564436,28.5683498 114.889111,29.8891626 109.854146,30.489532 C114.889111,27.4876847 118.845155,22.5646552 120.643357,16.8011084 C115.848152,19.6828818 110.573427,21.7241379 105.058941,22.804803 C100.623377,18.0018473 94.1498501,15 87.0769231,15 C73.5304695,15 62.5014985,26.046798 62.5014985,39.6151478 C62.5014985,41.53633 62.7412587,43.4575123 63.1008991,45.2586207 C42.6013986,44.1779557 24.4995005,34.4519704 12.3916084,19.5628079 C10.2337662,23.1650246 9.03496503,27.4876847 9.03496503,31.9304187 C9.03496503,40.455665 13.3506494,48.0203202 19.9440559,52.4630542 C15.8681319,52.3429803 12.1518482,51.2623153 8.7952048,49.341133 L8.7952048,49.7013547 C8.7952048,61.58867 17.3066933,71.554803 28.5754246,73.8362069 C26.5374625,74.4365764 24.3796204,74.6767241 22.1018981,74.6767241 C20.5434565,74.6767241 18.985015,74.5566502 17.4265734,74.1964286 C20.5434565,83.9224138 29.6543457,91.1268473 40.4435564,91.2469212 C32.0519481,97.8509852 21.3826174,101.813424 9.87412587,101.813424 C7.83616384,101.813424 5.91808192,101.69335 4,101.453202 C14.9090909,108.417488 27.8561439,112.5 41.6423576,112.5 C86.8371628,112.5 111.652348,74.9168719 111.652348,42.3768473 C111.652348,41.2961823 111.652348,40.2155172 111.532468,39.1348522 C116.567433,35.8928571 120.763237,31.570197 124,26.6471675 L124,26.6471675 Z" id="Shape"></path>
        </g>
    </g>
</svg>